<svg xmlns="http://www.w3.org/2000/svg" xmlns:xlink="http://www.w3.org/1999/xlink" viewBox="0 0 156.89 157"><defs><style>.cls-1{fill:url(#linear-gradient);}.cls-2{fill:url(#linear-gradient-2);}</style><linearGradient id="linear-gradient" x1="76.05" y1="39.79" x2="156.89" y2="39.79" gradientUnits="userSpaceOnUse"><stop offset="0" stop-color="#fc4968"/><stop offset="1" stop-color="#fb9564"/></linearGradient><linearGradient id="linear-gradient-2" x1="0" y1="78.5" x2="155.3" y2="78.5" xlink:href="#linear-gradient"/></defs><title>logo-icon</title><g id="Layer_2" data-name="Layer 2"><g id="Layer_1-2" data-name="Layer 1"><path class="cls-1" d="M80.16,21.39q-6.36,10.55-2.9,23A23.87,23.87,0,0,0,83,54.95a27.92,27.92,0,0,0,9.65,6.36,60.84,60.84,0,0,0,13,3.49q7.31,1.2,15.54,2,11.2,1.28,21.16,3.16a68.18,68.18,0,0,1,14.52,4.37,78.53,78.53,0,0,0-50.19-69.1l-.27.07Q86.52,10.84,80.16,21.39Z"/><path class="cls-2" d="M136.2,86.79q-8.9-1.79-21.91-3.08-9.26-.78-17.81-2.28a57.7,57.7,0,0,1-15.74-5.05,39.31,39.31,0,0,1-12.55-9.81q-5.36-6.26-8.36-17-5.4-19.42,5.29-35.31A48.25,48.25,0,0,1,80.49.05c-.66,0-1.32-.05-2-.05a78.5,78.5,0,1,0,76.8,94.76,28.56,28.56,0,0,0-4.58-3.1A51.9,51.9,0,0,0,136.2,86.79Z"/></g></g></svg>